<?xml version="1.0" encoding="iso-8859-1"?>
<!-- Generator: Adobe Illustrator 19.0.0, SVG Export Plug-In . SVG Version: 6.00 Build 0)  -->
<svg version="1.1" id="Layer_1" xmlns="http://www.w3.org/2000/svg" xmlns:xlink="http://www.w3.org/1999/xlink" x="0px" y="0px"
	 viewBox="0 0 470 470" style="enable-background:new 0 0 470 470;" xml:space="preserve">
<g>
	<g id="XMLID_27_">
		<g>
			<rect x="70" y="365" style="fill:#E7ECED;" width="40" height="95"/>
			<rect x="110" y="365" style="fill:#E7ECED;" width="40" height="95"/>
			<rect x="150" y="365" style="fill:#E7ECED;" width="40" height="95"/>
			<rect x="190" y="365" style="fill:#E7ECED;" width="45" height="95"/>
			<rect x="235" y="365" style="fill:#E7ECED;" width="45" height="95"/>
			<rect x="280" y="365" style="fill:#E7ECED;" width="40" height="95"/>
			<rect x="320" y="365" style="fill:#E7ECED;" width="40" height="95"/>
			<rect x="360" y="365" style="fill:#E7ECED;" width="40" height="95"/>
			<rect x="360" y="265" style="fill:#E7ECED;" width="40" height="100"/>
			<rect x="320" y="265" style="fill:#E7ECED;" width="40" height="100"/>
			<rect x="280" y="265" style="fill:#E7ECED;" width="40" height="100"/>
			<rect x="235" y="265" style="fill:#E7ECED;" width="45" height="100"/>
			<rect x="190" y="265" style="fill:#E7ECED;" width="45" height="100"/>
			<rect x="150" y="265" style="fill:#E7ECED;" width="40" height="100"/>
			<rect x="110" y="265" style="fill:#E7ECED;" width="40" height="100"/>
			<rect x="70" y="265" style="fill:#E7ECED;" width="40" height="100"/>
			<rect x="70" y="165" style="fill:#E7ECED;" width="40" height="100"/>
			<rect x="110" y="165" style="fill:#E7ECED;" width="40" height="100"/>
			<rect x="150" y="165" style="fill:#E7ECED;" width="40" height="100"/>
			<rect x="190" y="165" style="fill:#E7ECED;" width="45" height="100"/>
			<rect x="235" y="165" style="fill:#E7ECED;" width="45" height="100"/>
			<rect x="280" y="165" style="fill:#E7ECED;" width="40" height="100"/>
			<rect x="320" y="165" style="fill:#E7ECED;" width="40" height="100"/>
			<rect x="360" y="165" style="fill:#E7ECED;" width="40" height="100"/>
			<rect x="360" y="70" style="fill:#E7ECED;" width="40" height="95"/>
			<rect x="320" y="70" style="fill:#E7ECED;" width="40" height="95"/>
			<rect x="280" y="70" style="fill:#E7ECED;" width="40" height="95"/>
			<rect x="235" y="70" style="fill:#E7ECED;" width="45" height="95"/>
			<rect x="190" y="70" style="fill:#E7ECED;" width="45" height="95"/>
			<rect x="150" y="70" style="fill:#E7ECED;" width="40" height="95"/>
			<rect x="110" y="70" style="fill:#E7ECED;" width="40" height="95"/>
			<rect x="70" y="70" style="fill:#E7ECED;" width="40" height="95"/>
			<path style="fill:#AFB6BB;" d="M35,10h400v50c0,5.498-4.502,10-10,10h-25h-40h-40h-40h-45h-45h-40h-40H70H45
				c-5.498,0-10-4.502-10-10V10z"/>
		</g>
		<path style="fill:#231F20;" d="M435,0H35c-5.523,0-10,4.477-10,10v50c0,11.028,8.972,20,20,20h15v380c0,5.522,4.477,10,10,10h330
			c5.523,0,10-4.478,10-10V80h15c11.028,0,20-8.972,20-20V10C445,4.477,440.523,0,435,0z M100,80v75H80V80H100z M80,175h20v80H80
			V175z M200,275h25v80h-25V275z M180,355h-20v-80h20V355z M245,275h25v80h-25V275z M290,275h20v80h-20V275z M290,255v-80h20v80H290
			z M270,255h-25v-80h25V255z M225,255h-25v-80h25V255z M180,255h-20v-80h20V255z M140,255h-20v-80h20V255z M80,275h20v80H80V275z
			 M120,275h20v80h-20V275z M140,375v75h-20v-75H140z M160,375h20v75h-20V375z M200,375h25v75h-25V375z M245,375h25v75h-25V375z
			 M290,375h20v75h-20V375z M330,375h20v75h-20V375z M330,355v-80h20v80H330z M370,275h20v80h-20V275z M370,255v-80h20v80H370z
			 M350,255h-20v-80h20V255z M330,155V80h20v75H330z M310,155h-20V80h20V155z M270,155h-25V80h25V155z M225,155h-25V80h25V155z
			 M180,155h-20V80h20V155z M140,155h-20V80h20V155z M80,375h20v75H80V375z M370,450v-75h20v75H370z M390,155h-20V80h20V155z M45,60
			V50h340V30H45V20h380l0.001,40H45z"/>
	</g>
</g>
<g>
</g>
<g>
</g>
<g>
</g>
<g>
</g>
<g>
</g>
<g>
</g>
<g>
</g>
<g>
</g>
<g>
</g>
<g>
</g>
<g>
</g>
<g>
</g>
<g>
</g>
<g>
</g>
<g>
</g>
</svg>
